<svg xmlns="http://www.w3.org/2000/svg" xmlns:xlink="http://www.w3.org/1999/xlink" width="1366" zoomAndPan="magnify" viewBox="0 0 1024.5 576" height="768" preserveAspectRatio="xMidYMid meet" version="1.0"><defs><clipPath id="f3cf0ffe35"><path d="M 11 11 L 325 11 L 325 365 L 11 365 Z M 11 11 " clip-rule="nonzero"/></clipPath><clipPath id="925aabe056"><path d="M 209.316406 11.425781 L 43.296875 177.445312 C 22.558594 198.183594 11.15625 225.730469 11.15625 255.023438 C 11.15625 284.316406 22.558594 311.886719 43.296875 332.601562 C 64.679688 353.984375 92.789062 364.675781 120.875 364.675781 C 148.960938 364.675781 177.070312 353.984375 198.453125 332.601562 L 296.183594 234.871094 C 333.84375 197.210938 333.84375 135.929688 296.183594 98.273438 Z M 209.316406 11.425781 " clip-rule="nonzero"/></clipPath><clipPath id="0626102bd0"><path d="M 0.0273438 0.332031 L 314 0.332031 L 314 353.679688 L 0.0273438 353.679688 Z M 0.0273438 0.332031 " clip-rule="nonzero"/></clipPath><clipPath id="cbef8301c7"><path d="M 198.316406 0.425781 L 32.296875 166.445312 C 11.558594 187.183594 0.15625 214.730469 0.15625 244.023438 C 0.15625 273.316406 11.558594 300.886719 32.296875 321.601562 C 53.679688 342.984375 81.789062 353.675781 109.875 353.675781 C 137.960938 353.675781 166.070312 342.984375 187.453125 321.601562 L 285.183594 223.871094 C 322.84375 186.210938 322.84375 124.929688 285.183594 87.273438 Z M 198.316406 0.425781 " clip-rule="nonzero"/></clipPath><clipPath id="848dbf3d71"><rect x="0" width="314" y="0" height="354"/></clipPath><clipPath id="95e542205c"><path d="M 191 148.328125 L 412 148.328125 L 412 368 L 191 368 Z M 191 148.328125 " clip-rule="nonzero"/></clipPath><clipPath id="d4ea473805"><path d="M 301.097656 148.496094 C 240.789062 148.734375 191.8125 197.859375 191.8125 258.214844 C 191.8125 318.71875 241.023438 367.929688 301.53125 367.929688 C 362.035156 367.929688 411.246094 318.71875 411.246094 258.214844 C 411.246094 197.859375 362.253906 148.734375 301.960938 148.496094 Z M 301.097656 148.496094 " clip-rule="nonzero"/></clipPath><clipPath id="9c4a8c108f"><path d="M 0.660156 0.328125 L 220.394531 0.328125 L 220.394531 220 L 0.660156 220 Z M 0.660156 0.328125 " clip-rule="nonzero"/></clipPath><clipPath id="f201b18b91"><path d="M 110.097656 0.496094 C 49.789062 0.734375 0.8125 49.859375 0.8125 110.214844 C 0.8125 170.71875 50.023438 219.929688 110.53125 219.929688 C 171.035156 219.929688 220.246094 170.71875 220.246094 110.214844 C 220.246094 49.859375 171.253906 0.734375 110.960938 0.496094 Z M 110.097656 0.496094 " clip-rule="nonzero"/></clipPath><clipPath id="dc59951670"><rect x="0" width="221" y="0" height="220"/></clipPath><clipPath id="a8658eaaa4"><path d="M 504 48.113281 L 582.671875 48.113281 L 582.671875 168.324219 L 504 168.324219 Z M 504 48.113281 " clip-rule="nonzero"/></clipPath><clipPath id="5f2e7827bd"><path d="M 582.234375 160.050781 C 582.234375 161.730469 581.953125 162.9375 581.371094 163.691406 C 580.789062 164.445312 579.648438 165.007812 577.902344 165.417969 C 571.046875 167.164062 562.164062 168.046875 551.257812 168.046875 C 542.121094 168.046875 534.058594 166.234375 527.074219 162.636719 C 520.089844 159.035156 514.550781 153.386719 510.367188 145.714844 C 506.1875 138.039062 504.117188 128.75 504.117188 117.863281 L 504.117188 98.574219 C 504.117188 87.664062 506.207031 78.375 510.367188 70.722656 C 514.527344 63.070312 520.109375 57.421875 527.074219 53.824219 C 534.035156 50.222656 542.097656 48.414062 551.257812 48.414062 C 562.164062 48.414062 571.046875 49.296875 577.902344 51.042969 C 579.648438 51.453125 580.8125 52.011719 581.371094 52.765625 C 581.933594 53.523438 582.234375 54.730469 582.234375 56.410156 L 582.234375 69.925781 C 582.234375 70.875 581.890625 71.605469 581.179688 72.144531 C 580.464844 72.683594 579.582031 72.941406 578.503906 72.941406 L 577.902344 72.941406 C 570.164062 71.996094 561.28125 71.519531 551.257812 71.519531 C 548.628906 71.519531 546.214844 71.953125 543.996094 72.769531 C 541.773438 73.589844 539.683594 74.992188 537.742188 76.910156 C 535.804688 78.828125 534.25 81.628906 533.109375 85.335938 C 531.964844 89.046875 531.386719 93.441406 531.386719 98.550781 L 531.386719 117.820312 C 531.386719 122.929688 531.964844 127.347656 533.109375 131.035156 C 534.25 134.722656 535.804688 137.546875 537.742188 139.464844 C 539.683594 141.382812 541.773438 142.761719 543.996094 143.601562 C 546.214844 144.441406 548.628906 144.875 551.257812 144.875 C 561.28125 144.875 570.164062 144.398438 577.902344 143.449219 L 578.503906 143.449219 C 579.582031 143.449219 580.464844 143.710938 581.179688 144.269531 C 581.890625 144.832031 582.234375 145.542969 582.234375 146.492188 Z M 582.234375 160.050781 " clip-rule="nonzero"/></clipPath><clipPath id="002927d822"><path d="M 0 0.277344 L 78.429688 0.277344 L 78.429688 120.21875 L 0 120.21875 Z M 0 0.277344 " clip-rule="nonzero"/></clipPath><clipPath id="e0f2a037fa"><path d="M 78.234375 112.050781 C 78.234375 113.730469 77.953125 114.9375 77.371094 115.691406 C 76.789062 116.445312 75.648438 117.007812 73.902344 117.417969 C 67.046875 119.164062 58.164062 120.046875 47.257812 120.046875 C 38.121094 120.046875 30.058594 118.234375 23.074219 114.636719 C 16.089844 111.035156 10.550781 105.386719 6.367188 97.714844 C 2.1875 90.039062 0.117188 80.75 0.117188 69.863281 L 0.117188 50.574219 C 0.117188 39.664062 2.207031 30.375 6.367188 22.722656 C 10.527344 15.070312 16.109375 9.421875 23.074219 5.824219 C 30.035156 2.222656 38.097656 0.414062 47.257812 0.414062 C 58.164062 0.414062 67.046875 1.296875 73.902344 3.042969 C 75.648438 3.453125 76.8125 4.011719 77.371094 4.765625 C 77.933594 5.523438 78.234375 6.730469 78.234375 8.410156 L 78.234375 21.925781 C 78.234375 22.875 77.890625 23.605469 77.179688 24.144531 C 76.464844 24.683594 75.582031 24.941406 74.503906 24.941406 L 73.902344 24.941406 C 66.164062 23.996094 57.28125 23.519531 47.257812 23.519531 C 44.628906 23.519531 42.214844 23.953125 39.996094 24.769531 C 37.773438 25.589844 35.683594 26.992188 33.742188 28.910156 C 31.804688 30.828125 30.25 33.628906 29.109375 37.335938 C 27.964844 41.046875 27.386719 45.441406 27.386719 50.550781 L 27.386719 69.820312 C 27.386719 74.929688 27.964844 79.347656 29.109375 83.035156 C 30.25 86.722656 31.804688 89.546875 33.742188 91.464844 C 35.683594 93.382812 37.773438 94.761719 39.996094 95.601562 C 42.214844 96.441406 44.628906 96.875 47.257812 96.875 C 57.28125 96.875 66.164062 96.398438 73.902344 95.449219 L 74.503906 95.449219 C 75.582031 95.449219 76.464844 95.710938 77.179688 96.269531 C 77.890625 96.832031 78.234375 97.542969 78.234375 98.492188 Z M 78.234375 112.050781 " clip-rule="nonzero"/></clipPath><clipPath id="5221968bb6"><rect x="0" width="79" y="0" height="121"/></clipPath><clipPath id="631727bf91"><path d="M 600.316406 48.113281 L 697.921875 48.113281 L 697.921875 168.324219 L 600.316406 168.324219 Z M 600.316406 48.113281 " clip-rule="nonzero"/></clipPath><clipPath id="f6adbb3022"><path d="M 670.050781 144.3125 L 670.050781 72.144531 C 665.480469 71.199219 658.886719 70.722656 650.261719 70.722656 C 645.953125 70.722656 642.308594 71.457031 639.3125 72.898438 C 636.316406 74.34375 634.03125 76.433594 632.457031 79.195312 C 630.882812 81.953125 629.742188 85.035156 629.074219 88.421875 C 628.40625 91.804688 628.0625 95.769531 628.0625 100.277344 L 628.0625 116.117188 C 628.0625 120.625 628.40625 124.589844 629.074219 127.972656 C 629.742188 131.359375 630.863281 134.460938 632.457031 137.222656 C 634.054688 139.980469 636.339844 142.09375 639.3125 143.539062 C 642.289062 144.980469 645.953125 145.714844 650.261719 145.714844 C 658.886719 145.714844 665.460938 145.242188 670.050781 144.292969 M 697.40625 157.117188 C 697.40625 158.734375 697.039062 159.917969 696.285156 160.652344 C 695.53125 161.386719 694.019531 162.074219 691.734375 162.679688 C 678.003906 166.234375 664.167969 168.023438 650.242188 168.023438 C 633.878906 168.023438 621.550781 163.476562 613.253906 154.402344 C 604.953125 145.328125 600.792969 132.566406 600.792969 116.140625 L 600.792969 100.296875 C 600.792969 83.871094 604.953125 71.132812 613.253906 62.035156 C 621.550781 52.941406 633.925781 48.414062 650.261719 48.414062 C 664.1875 48.414062 678.027344 50.203125 691.757812 53.757812 C 694.042969 54.363281 695.550781 55.03125 696.304688 55.785156 C 697.058594 56.539062 697.425781 57.703125 697.425781 59.320312 Z M 697.40625 157.117188 " clip-rule="nonzero"/></clipPath><clipPath id="818b490c57"><path d="M 0.660156 0.277344 L 97.574219 0.277344 L 97.574219 120.21875 L 0.660156 120.21875 Z M 0.660156 0.277344 " clip-rule="nonzero"/></clipPath><clipPath id="44203a02bb"><path d="M 70.050781 96.3125 L 70.050781 24.144531 C 65.480469 23.199219 58.886719 22.722656 50.261719 22.722656 C 45.953125 22.722656 42.308594 23.457031 39.3125 24.898438 C 36.316406 26.34375 34.03125 28.433594 32.457031 31.195312 C 30.882812 33.953125 29.742188 37.035156 29.074219 40.421875 C 28.40625 43.804688 28.0625 47.769531 28.0625 52.277344 L 28.0625 68.117188 C 28.0625 72.625 28.40625 76.589844 29.074219 79.972656 C 29.742188 83.359375 30.863281 86.460938 32.457031 89.222656 C 34.054688 91.980469 36.339844 94.09375 39.3125 95.539062 C 42.289062 96.980469 45.953125 97.714844 50.261719 97.714844 C 58.886719 97.714844 65.460938 97.242188 70.050781 96.292969 M 97.40625 109.117188 C 97.40625 110.734375 97.039062 111.917969 96.285156 112.652344 C 95.53125 113.386719 94.019531 114.074219 91.734375 114.679688 C 78.003906 118.234375 64.167969 120.023438 50.242188 120.023438 C 33.878906 120.023438 21.550781 115.476562 13.253906 106.402344 C 4.953125 97.328125 0.792969 84.566406 0.792969 68.140625 L 0.792969 52.296875 C 0.792969 35.871094 4.953125 23.132812 13.253906 14.035156 C 21.550781 4.941406 33.925781 0.414062 50.261719 0.414062 C 64.1875 0.414062 78.027344 2.203125 91.757812 5.757812 C 94.042969 6.363281 95.550781 7.03125 96.304688 7.785156 C 97.058594 8.539062 97.425781 9.703125 97.425781 11.320312 Z M 97.40625 109.117188 " clip-rule="nonzero"/></clipPath><clipPath id="b19cbd3f94"><rect x="0" width="98" y="0" height="121"/></clipPath><clipPath id="5d59c452d5"><path d="M 502.507812 231 L 585.773438 231 L 585.773438 351 L 502.507812 351 Z M 502.507812 231 " clip-rule="nonzero"/></clipPath><clipPath id="dc20c1b3f4"><path d="M 585.28125 318.542969 C 585.28125 327.960938 581.789062 335.679688 574.78125 341.714844 C 567.777344 347.75 557.796875 350.746094 544.796875 350.746094 C 539.605469 350.746094 533.4375 350.402344 526.28125 349.730469 C 519.125 349.0625 512.941406 348.007812 507.765625 346.605469 C 505.136719 346.003906 503.820312 344.429688 503.820312 341.863281 L 503.820312 329.449219 C 503.820312 328.585938 504.167969 327.808594 504.835938 327.183594 C 505.503906 326.558594 506.410156 326.238281 507.550781 326.238281 L 508.15625 326.238281 C 512.789062 326.777344 518.890625 327.273438 526.433594 327.746094 C 533.976562 328.21875 539.453125 328.457031 542.878906 328.457031 C 548.742188 328.457031 552.644531 327.617188 554.648438 325.933594 C 556.652344 324.253906 557.625 321.796875 557.625 318.5625 C 557.625 316.601562 556.976562 314.878906 555.664062 313.367188 C 554.347656 311.859375 551.976562 310.046875 548.550781 307.957031 L 520.160156 290.585938 C 514.921875 287.351562 510.699219 283.253906 507.550781 278.277344 C 504.402344 273.296875 502.808594 267.90625 502.808594 262.132812 C 502.808594 241.460938 515.894531 231.132812 542.082031 231.132812 C 554.195312 231.132812 566.484375 232.515625 578.921875 235.273438 C 581.398438 235.875 582.648438 237.449219 582.648438 240.015625 L 582.648438 251.914062 C 582.648438 253.121094 582.304688 254.089844 581.636719 254.800781 C 580.96875 255.511719 580.128906 255.859375 579.113281 255.859375 L 578.511719 255.859375 C 567 254.242188 555.640625 253.445312 544.390625 253.445312 C 539.34375 253.445312 535.679688 254.089844 533.4375 255.40625 C 531.195312 256.71875 530.054688 258.960938 530.054688 262.109375 C 530.054688 263.660156 530.679688 264.996094 531.929688 266.140625 C 533.179688 267.28125 535.3125 268.769531 538.332031 270.582031 L 565.492188 287.136719 C 569.671875 289.613281 573.121094 292.199219 575.882812 294.851562 C 578.640625 297.503906 580.667969 300.199219 581.9375 302.933594 C 583.210938 305.671875 584.09375 308.195312 584.570312 310.542969 C 585.042969 312.894531 585.28125 315.566406 585.28125 318.519531 " clip-rule="nonzero"/></clipPath><clipPath id="49932d4440"><path d="M 0.789062 0.0664062 L 83.308594 0.0664062 L 83.308594 119.769531 L 0.789062 119.769531 Z M 0.789062 0.0664062 " clip-rule="nonzero"/></clipPath><clipPath id="6260451486"><path d="M 83.28125 87.542969 C 83.28125 96.960938 79.789062 104.679688 72.78125 110.714844 C 65.777344 116.75 55.796875 119.746094 42.796875 119.746094 C 37.605469 119.746094 31.4375 119.402344 24.28125 118.730469 C 17.125 118.0625 10.941406 117.007812 5.765625 115.605469 C 3.136719 115.003906 1.820312 113.429688 1.820312 110.863281 L 1.820312 98.449219 C 1.820312 97.585938 2.167969 96.808594 2.835938 96.183594 C 3.503906 95.558594 4.410156 95.238281 5.550781 95.238281 L 6.15625 95.238281 C 10.789062 95.777344 16.890625 96.273438 24.433594 96.746094 C 31.976562 97.21875 37.453125 97.457031 40.878906 97.457031 C 46.742188 97.457031 50.644531 96.617188 52.648438 94.933594 C 54.652344 93.253906 55.625 90.796875 55.625 87.5625 C 55.625 85.601562 54.976562 83.878906 53.664062 82.367188 C 52.347656 80.859375 49.976562 79.046875 46.550781 76.957031 L 18.160156 59.585938 C 12.921875 56.351562 8.699219 52.253906 5.550781 47.277344 C 2.402344 42.296875 0.808594 36.90625 0.808594 31.132812 C 0.808594 10.460938 13.894531 0.132812 40.082031 0.132812 C 52.195312 0.132812 64.484375 1.515625 76.921875 4.273438 C 79.398438 4.875 80.648438 6.449219 80.648438 9.015625 L 80.648438 20.914062 C 80.648438 22.121094 80.304688 23.089844 79.636719 23.800781 C 78.96875 24.511719 78.128906 24.859375 77.113281 24.859375 L 76.511719 24.859375 C 65 23.242188 53.640625 22.445312 42.390625 22.445312 C 37.34375 22.445312 33.679688 23.089844 31.4375 24.40625 C 29.195312 25.71875 28.054688 27.960938 28.054688 31.109375 C 28.054688 32.660156 28.679688 33.996094 29.929688 35.140625 C 31.179688 36.28125 33.3125 37.769531 36.332031 39.582031 L 63.492188 56.136719 C 67.671875 58.613281 71.121094 61.199219 73.882812 63.851562 C 76.640625 66.503906 78.667969 69.199219 79.9375 71.933594 C 81.210938 74.671875 82.09375 77.195312 82.570312 79.542969 C 83.042969 81.894531 83.28125 84.566406 83.28125 87.519531 " clip-rule="nonzero"/></clipPath><clipPath id="7832043dd0"><rect x="0" width="84" y="0" height="120"/></clipPath><clipPath id="eb06d39904"><path d="M 600.664062 231 L 697.714844 231 L 697.714844 351 L 600.664062 351 Z M 600.664062 231 " clip-rule="nonzero"/></clipPath><clipPath id="e05aefabe7"><path d="M 670.058594 327.011719 L 670.058594 254.84375 C 665.488281 253.898438 658.890625 253.421875 650.269531 253.421875 C 645.957031 253.421875 642.316406 254.15625 639.320312 255.601562 C 636.324219 257.042969 634.039062 259.15625 632.464844 261.914062 C 630.890625 264.675781 629.75 267.757812 629.082031 271.140625 C 628.414062 274.527344 628.066406 278.492188 628.066406 282.996094 L 628.066406 298.839844 C 628.066406 303.34375 628.414062 307.3125 629.082031 310.695312 C 629.75 314.078125 630.871094 317.183594 632.464844 319.941406 C 634.058594 322.703125 636.34375 324.8125 639.320312 326.257812 C 642.292969 327.703125 645.957031 328.4375 650.269531 328.4375 C 658.890625 328.4375 665.464844 327.960938 670.058594 327.011719 M 697.410156 339.839844 C 697.410156 341.453125 697.042969 342.640625 696.289062 343.375 C 695.535156 344.105469 694.027344 344.796875 691.742188 345.398438 C 678.011719 348.957031 664.171875 350.746094 650.246094 350.746094 C 633.886719 350.746094 621.558594 346.195312 613.257812 337.121094 C 604.960938 328.046875 600.800781 315.285156 600.800781 298.863281 L 600.800781 283.019531 C 600.800781 266.59375 604.960938 253.855469 613.257812 244.757812 C 621.558594 235.660156 633.929688 231.132812 650.269531 231.132812 C 664.195312 231.132812 678.03125 232.921875 691.761719 236.480469 C 694.046875 237.082031 695.558594 237.75 696.3125 238.507812 C 697.066406 239.261719 697.433594 240.425781 697.433594 242.042969 Z M 697.410156 339.839844 " clip-rule="nonzero"/></clipPath><clipPath id="3b946d2c2a"><path d="M 0.664062 0.0664062 L 97.574219 0.0664062 L 97.574219 119.769531 L 0.664062 119.769531 Z M 0.664062 0.0664062 " clip-rule="nonzero"/></clipPath><clipPath id="c4e7f3a910"><path d="M 70.058594 96.011719 L 70.058594 23.84375 C 65.488281 22.898438 58.890625 22.421875 50.269531 22.421875 C 45.957031 22.421875 42.316406 23.15625 39.320312 24.601562 C 36.324219 26.042969 34.039062 28.15625 32.464844 30.914062 C 30.890625 33.675781 29.75 36.757812 29.082031 40.140625 C 28.414062 43.527344 28.066406 47.492188 28.066406 51.996094 L 28.066406 67.839844 C 28.066406 72.34375 28.414062 76.3125 29.082031 79.695312 C 29.75 83.078125 30.871094 86.183594 32.464844 88.941406 C 34.058594 91.703125 36.34375 93.8125 39.320312 95.257812 C 42.292969 96.703125 45.957031 97.4375 50.269531 97.4375 C 58.890625 97.4375 65.464844 96.960938 70.058594 96.011719 M 97.410156 108.839844 C 97.410156 110.453125 97.042969 111.640625 96.289062 112.375 C 95.535156 113.105469 94.027344 113.796875 91.742188 114.398438 C 78.011719 117.957031 64.171875 119.746094 50.246094 119.746094 C 33.886719 119.746094 21.558594 115.195312 13.257812 106.121094 C 4.960938 97.046875 0.800781 84.285156 0.800781 67.863281 L 0.800781 52.019531 C 0.800781 35.59375 4.960938 22.855469 13.257812 13.757812 C 21.558594 4.660156 33.929688 0.132812 50.269531 0.132812 C 64.195312 0.132812 78.03125 1.921875 91.761719 5.480469 C 94.046875 6.082031 95.558594 6.75 96.3125 7.507812 C 97.066406 8.261719 97.433594 9.425781 97.433594 11.042969 Z M 97.410156 108.839844 " clip-rule="nonzero"/></clipPath><clipPath id="016f31ecf4"><rect x="0" width="98" y="0" height="120"/></clipPath><clipPath id="0a97fe8435"><path d="M 723.050781 191.769531 L 750.40625 191.769531 L 750.40625 349.160156 L 723.050781 349.160156 Z M 723.050781 191.769531 " clip-rule="nonzero"/></clipPath><clipPath id="86dd5c6a86"><path d="M 750.40625 344.789062 C 750.40625 345.996094 750.039062 347.03125 749.285156 347.871094 C 748.53125 348.710938 747.601562 349.144531 746.460938 349.144531 L 727.191406 349.144531 C 726.046875 349.144531 725.078125 348.710938 724.257812 347.828125 C 723.4375 346.945312 723.050781 345.933594 723.050781 344.789062 L 723.050781 195.90625 C 723.050781 194.765625 723.460938 193.792969 724.257812 192.976562 C 725.054688 192.15625 726.046875 191.769531 727.191406 191.769531 L 746.460938 191.769531 C 747.601562 191.769531 748.550781 192.175781 749.285156 192.976562 C 750.015625 193.773438 750.40625 194.765625 750.40625 195.90625 Z M 750.40625 344.789062 " clip-rule="nonzero"/></clipPath><clipPath id="c53aded87c"><path d="M 0.0507812 0.769531 L 27.40625 0.769531 L 27.40625 158.160156 L 0.0507812 158.160156 Z M 0.0507812 0.769531 " clip-rule="nonzero"/></clipPath><clipPath id="17643bede7"><path d="M 27.40625 153.789062 C 27.40625 154.996094 27.039062 156.03125 26.285156 156.871094 C 25.53125 157.710938 24.601562 158.144531 23.460938 158.144531 L 4.191406 158.144531 C 3.046875 158.144531 2.078125 157.710938 1.257812 156.828125 C 0.4375 155.945312 0.0507812 154.933594 0.0507812 153.789062 L 0.0507812 4.90625 C 0.0507812 3.765625 0.460938 2.792969 1.257812 1.976562 C 2.054688 1.15625 3.046875 0.769531 4.191406 0.769531 L 23.460938 0.769531 C 24.601562 0.769531 25.550781 1.175781 26.285156 1.976562 C 27.015625 2.773438 27.40625 3.765625 27.40625 4.90625 Z M 27.40625 153.789062 " clip-rule="nonzero"/></clipPath><clipPath id="de0587a918"><rect x="0" width="28" y="0" height="159"/></clipPath><clipPath id="881b4a6b7d"><path d="M 720 48.113281 L 802.988281 48.113281 L 802.988281 168.324219 L 720 168.324219 Z M 720 48.113281 " clip-rule="nonzero"/></clipPath><clipPath id="a28cec96b5"><path d="M 802.492188 135.820312 C 802.492188 145.242188 799 152.957031 791.996094 158.992188 C 784.992188 165.027344 775.011719 168.023438 762.011719 168.023438 C 756.816406 168.023438 750.652344 167.679688 743.496094 167.011719 C 736.339844 166.34375 730.152344 165.285156 724.980469 163.886719 C 722.351562 163.28125 721.035156 161.707031 721.035156 159.144531 L 721.035156 146.726562 C 721.035156 145.84375 721.378906 145.089844 722.050781 144.464844 C 722.71875 143.839844 723.621094 143.496094 724.765625 143.496094 L 725.367188 143.496094 C 730.003906 144.03125 736.101562 144.550781 743.648438 145.003906 C 751.191406 145.457031 756.667969 145.714844 760.09375 145.714844 C 765.957031 145.714844 769.859375 144.875 771.863281 143.191406 C 773.867188 141.511719 774.839844 139.054688 774.839844 135.820312 C 774.839844 133.859375 774.191406 132.132812 772.875 130.625 C 771.5625 129.117188 769.191406 127.304688 765.761719 125.214844 L 737.375 107.863281 C 732.136719 104.628906 727.914062 100.535156 724.765625 95.554688 C 721.617188 90.574219 720.023438 85.1875 720.023438 79.410156 C 720.023438 58.738281 733.105469 48.414062 759.296875 48.414062 C 771.410156 48.414062 783.699219 49.792969 796.136719 52.550781 C 798.613281 53.15625 799.863281 54.730469 799.863281 57.292969 L 799.863281 69.214844 C 799.863281 70.421875 799.519531 71.390625 798.851562 72.101562 C 798.183594 72.8125 797.34375 73.160156 796.328125 73.160156 L 795.726562 73.160156 C 784.214844 71.542969 772.855469 70.746094 761.601562 70.746094 C 756.558594 70.746094 752.894531 71.390625 750.652344 72.707031 C 748.410156 74.019531 747.269531 76.261719 747.269531 79.410156 C 747.269531 80.960938 747.894531 82.296875 749.144531 83.441406 C 750.394531 84.582031 752.527344 86.070312 755.546875 87.882812 L 782.707031 104.4375 C 786.886719 106.914062 790.335938 109.5 793.097656 112.152344 C 795.855469 114.804688 797.882812 117.5 799.152344 120.234375 C 800.425781 122.972656 801.308594 125.496094 801.78125 127.84375 C 802.257812 130.195312 802.492188 132.867188 802.492188 135.820312 " clip-rule="nonzero"/></clipPath><clipPath id="a92ec9c778"><path d="M 0 0.277344 L 82.640625 0.277344 L 82.640625 120.21875 L 0 120.21875 Z M 0 0.277344 " clip-rule="nonzero"/></clipPath><clipPath id="be665af5ff"><path d="M 82.492188 87.820312 C 82.492188 97.242188 79 104.957031 71.996094 110.992188 C 64.992188 117.027344 55.011719 120.023438 42.011719 120.023438 C 36.816406 120.023438 30.652344 119.679688 23.496094 119.011719 C 16.339844 118.34375 10.152344 117.285156 4.980469 115.886719 C 2.351562 115.28125 1.035156 113.707031 1.035156 111.144531 L 1.035156 98.726562 C 1.035156 97.84375 1.378906 97.089844 2.050781 96.464844 C 2.71875 95.839844 3.621094 95.496094 4.765625 95.496094 L 5.367188 95.496094 C 10.003906 96.03125 16.101562 96.550781 23.648438 97.003906 C 31.191406 97.457031 36.667969 97.714844 40.09375 97.714844 C 45.957031 97.714844 49.859375 96.875 51.863281 95.191406 C 53.867188 93.511719 54.839844 91.054688 54.839844 87.820312 C 54.839844 85.859375 54.191406 84.132812 52.875 82.625 C 51.5625 81.117188 49.191406 79.304688 45.761719 77.214844 L 17.375 59.863281 C 12.136719 56.628906 7.914062 52.535156 4.765625 47.554688 C 1.617188 42.574219 0.0234375 37.1875 0.0234375 31.410156 C 0.0234375 10.738281 13.105469 0.414062 39.296875 0.414062 C 51.410156 0.414062 63.699219 1.792969 76.136719 4.550781 C 78.613281 5.15625 79.863281 6.730469 79.863281 9.292969 L 79.863281 21.214844 C 79.863281 22.421875 79.519531 23.390625 78.851562 24.101562 C 78.183594 24.8125 77.34375 25.160156 76.328125 25.160156 L 75.726562 25.160156 C 64.214844 23.542969 52.855469 22.746094 41.601562 22.746094 C 36.558594 22.746094 32.894531 23.390625 30.652344 24.707031 C 28.410156 26.019531 27.269531 28.261719 27.269531 31.410156 C 27.269531 32.960938 27.894531 34.296875 29.144531 35.441406 C 30.394531 36.582031 32.527344 38.070312 35.546875 39.882812 L 62.707031 56.4375 C 66.886719 58.914062 70.335938 61.5 73.097656 64.152344 C 75.855469 66.804688 77.882812 69.5 79.152344 72.234375 C 80.425781 74.972656 81.308594 77.496094 81.78125 79.84375 C 82.257812 82.195312 82.492188 84.867188 82.492188 87.820312 " clip-rule="nonzero"/></clipPath><clipPath id="0ced74c684"><rect x="0" width="83" y="0" height="121"/></clipPath><clipPath id="a1c69ac49d"><path d="M 821 48.113281 L 917.6875 48.113281 L 917.6875 168.324219 L 821 168.324219 Z M 821 48.113281 " clip-rule="nonzero"/></clipPath><clipPath id="399a1ac51c"><path d="M 890.3125 144.3125 L 890.3125 72.144531 C 885.742188 71.199219 879.144531 70.722656 870.523438 70.722656 C 866.210938 70.722656 862.570312 71.457031 859.574219 72.898438 C 856.578125 74.34375 854.292969 76.433594 852.695312 79.195312 C 851.101562 81.953125 849.980469 85.035156 849.3125 88.421875 C 848.644531 91.804688 848.300781 95.769531 848.300781 100.277344 L 848.300781 116.117188 C 848.300781 120.625 848.644531 124.589844 849.3125 127.972656 C 849.980469 131.359375 851.101562 134.460938 852.695312 137.222656 C 854.292969 139.980469 856.578125 142.09375 859.550781 143.539062 C 862.527344 144.980469 866.191406 145.714844 870.5 145.714844 C 879.125 145.714844 885.699219 145.242188 890.289062 144.292969 M 917.644531 157.117188 C 917.644531 158.734375 917.277344 159.917969 916.523438 160.652344 C 915.769531 161.386719 914.28125 162.074219 911.972656 162.679688 C 898.242188 166.234375 884.425781 168.023438 870.480469 168.023438 C 854.121094 168.023438 841.789062 163.476562 833.492188 154.402344 C 825.191406 145.328125 821.03125 132.566406 821.03125 116.140625 L 821.03125 100.296875 C 821.03125 83.871094 825.191406 71.132812 833.492188 62.035156 C 841.789062 52.941406 854.164062 48.414062 870.523438 48.414062 C 884.449219 48.414062 898.285156 50.203125 912.015625 53.757812 C 914.300781 54.363281 915.8125 55.03125 916.566406 55.785156 C 917.320312 56.539062 917.6875 57.703125 917.6875 59.320312 Z M 917.644531 157.117188 " clip-rule="nonzero"/></clipPath><clipPath id="1ed329fdfa"><path d="M 0 0.277344 L 96.6875 0.277344 L 96.6875 120.21875 L 0 120.21875 Z M 0 0.277344 " clip-rule="nonzero"/></clipPath><clipPath id="5ce5c3418b"><path d="M 69.3125 96.3125 L 69.3125 24.144531 C 64.742188 23.199219 58.144531 22.722656 49.523438 22.722656 C 45.210938 22.722656 41.570312 23.457031 38.574219 24.898438 C 35.578125 26.34375 33.292969 28.433594 31.695312 31.195312 C 30.101562 33.953125 28.980469 37.035156 28.3125 40.421875 C 27.644531 43.804688 27.300781 47.769531 27.300781 52.277344 L 27.300781 68.117188 C 27.300781 72.625 27.644531 76.589844 28.3125 79.972656 C 28.980469 83.359375 30.101562 86.460938 31.695312 89.222656 C 33.292969 91.980469 35.578125 94.09375 38.550781 95.539062 C 41.527344 96.980469 45.191406 97.714844 49.5 97.714844 C 58.125 97.714844 64.699219 97.242188 69.289062 96.292969 M 96.644531 109.117188 C 96.644531 110.734375 96.277344 111.917969 95.523438 112.652344 C 94.769531 113.386719 93.28125 114.074219 90.972656 114.679688 C 77.242188 118.234375 63.425781 120.023438 49.480469 120.023438 C 33.121094 120.023438 20.789062 115.476562 12.492188 106.402344 C 4.191406 97.328125 0.03125 84.566406 0.03125 68.140625 L 0.03125 52.296875 C 0.03125 35.871094 4.191406 23.132812 12.492188 14.035156 C 20.789062 4.941406 33.164062 0.414062 49.523438 0.414062 C 63.449219 0.414062 77.285156 2.203125 91.015625 5.757812 C 93.300781 6.363281 94.8125 7.03125 95.566406 7.785156 C 96.320312 8.539062 96.6875 9.703125 96.6875 11.320312 Z M 96.644531 109.117188 " clip-rule="nonzero"/></clipPath><clipPath id="65fc6212f1"><rect x="0" width="97" y="0" height="121"/></clipPath><clipPath id="0525a52dfd"><path d="M 776 232.46875 L 871.75 232.46875 L 871.75 350.945312 L 776 350.945312 Z M 776 232.46875 " clip-rule="nonzero"/></clipPath><clipPath id="495358f9cb"><path d="M 871.535156 300.773438 C 871.535156 306.960938 870.867188 312.605469 869.507812 317.671875 C 868.148438 322.738281 866.445312 326.984375 864.355469 330.390625 C 862.265625 333.796875 859.742188 336.769531 856.789062 339.316406 C 853.835938 341.859375 850.925781 343.863281 848.101562 345.265625 C 845.277344 346.664062 842.261719 347.828125 839.070312 348.691406 C 835.882812 349.554688 833.144531 350.113281 830.902344 350.351562 C 828.660156 350.589844 826.484375 350.695312 824.390625 350.695312 L 823.183594 350.695312 C 821.09375 350.695312 818.917969 350.589844 816.675781 350.351562 C 814.433594 350.113281 811.695312 349.554688 808.503906 348.691406 C 805.316406 347.828125 802.296875 346.664062 799.472656 345.265625 C 796.648438 343.863281 793.761719 341.859375 790.789062 339.316406 C 787.8125 336.769531 785.3125 333.773438 783.222656 330.390625 C 781.128906 327.007812 779.425781 322.761719 778.070312 317.671875 C 776.710938 312.585938 776.042969 306.980469 776.042969 300.773438 L 776.042969 236.882812 C 776.042969 235.675781 776.410156 234.640625 777.140625 233.800781 C 777.875 232.960938 778.824219 232.550781 779.964844 232.550781 L 799.34375 232.550781 C 800.488281 232.550781 801.433594 232.980469 802.167969 233.800781 C 802.902344 234.621094 803.269531 235.675781 803.269531 236.882812 L 803.269531 300.773438 C 803.269531 310.863281 804.925781 317.800781 808.269531 321.574219 C 811.609375 325.347656 816.566406 327.222656 823.164062 327.222656 L 824.371094 327.222656 C 830.964844 327.222656 835.925781 325.347656 839.265625 321.574219 C 842.605469 317.800781 844.265625 310.882812 844.265625 300.773438 L 844.265625 236.882812 C 844.265625 235.675781 844.632812 234.640625 845.367188 233.800781 C 846.097656 232.960938 847.046875 232.550781 848.1875 232.550781 L 867.566406 232.550781 C 868.710938 232.550781 869.660156 232.980469 870.390625 233.800781 C 871.125 234.621094 871.511719 235.675781 871.511719 236.882812 Z M 871.535156 300.773438 " clip-rule="nonzero"/></clipPath><clipPath id="d8f0998aa6"><path d="M 0.015625 0.503906 L 95.730469 0.503906 L 95.730469 118.769531 L 0.015625 118.769531 Z M 0.015625 0.503906 " clip-rule="nonzero"/></clipPath><clipPath id="4211d491ef"><path d="M 95.535156 68.773438 C 95.535156 74.960938 94.867188 80.605469 93.507812 85.671875 C 92.148438 90.738281 90.445312 94.984375 88.355469 98.390625 C 86.265625 101.796875 83.742188 104.769531 80.789062 107.316406 C 77.835938 109.859375 74.925781 111.863281 72.101562 113.265625 C 69.277344 114.664062 66.261719 115.828125 63.070312 116.691406 C 59.882812 117.554688 57.144531 118.113281 54.902344 118.351562 C 52.660156 118.589844 50.484375 118.695312 48.390625 118.695312 L 47.183594 118.695312 C 45.09375 118.695312 42.917969 118.589844 40.675781 118.351562 C 38.433594 118.113281 35.695312 117.554688 32.503906 116.691406 C 29.316406 115.828125 26.296875 114.664062 23.472656 113.265625 C 20.648438 111.863281 17.761719 109.859375 14.789062 107.316406 C 11.8125 104.769531 9.3125 101.773438 7.222656 98.390625 C 5.128906 95.007812 3.425781 90.761719 2.070312 85.671875 C 0.710938 80.585938 0.0429688 74.980469 0.0429688 68.773438 L 0.0429688 4.882812 C 0.0429688 3.675781 0.410156 2.640625 1.140625 1.800781 C 1.875 0.960938 2.824219 0.550781 3.964844 0.550781 L 23.34375 0.550781 C 24.488281 0.550781 25.433594 0.980469 26.167969 1.800781 C 26.902344 2.621094 27.269531 3.675781 27.269531 4.882812 L 27.269531 68.773438 C 27.269531 78.863281 28.925781 85.800781 32.269531 89.574219 C 35.609375 93.347656 40.566406 95.222656 47.164062 95.222656 L 48.371094 95.222656 C 54.964844 95.222656 59.925781 93.347656 63.265625 89.574219 C 66.605469 85.800781 68.265625 78.882812 68.265625 68.773438 L 68.265625 4.882812 C 68.265625 3.675781 68.632812 2.640625 69.367188 1.800781 C 70.097656 0.960938 71.046875 0.550781 72.1875 0.550781 L 91.566406 0.550781 C 92.710938 0.550781 93.660156 0.980469 94.390625 1.800781 C 95.125 2.621094 95.511719 3.675781 95.511719 4.882812 Z M 95.535156 68.773438 " clip-rule="nonzero"/></clipPath><clipPath id="5b5842c3b3"><rect x="0" width="96" y="0" height="119"/></clipPath><clipPath id="9100a5f58a"><path d="M 892.203125 191.566406 L 989 191.566406 L 989 350.945312 L 892.203125 350.945312 Z M 892.203125 191.566406 " clip-rule="nonzero"/></clipPath><clipPath id="f0c7528411"><path d="M 961.484375 327.027344 L 961.484375 254.859375 C 954.757812 253.910156 948.164062 253.4375 941.695312 253.4375 C 937.386719 253.4375 933.742188 254.171875 930.746094 255.613281 C 927.75 257.058594 925.464844 259.171875 923.890625 261.929688 C 922.320312 264.691406 921.175781 267.773438 920.507812 271.15625 C 919.839844 274.539062 919.496094 278.507812 919.496094 283.011719 L 919.496094 298.855469 C 919.496094 303.359375 919.839844 307.328125 920.507812 310.710938 C 921.175781 314.09375 922.296875 317.199219 923.890625 319.957031 C 925.488281 322.71875 927.773438 324.828125 930.746094 326.273438 C 933.722656 327.71875 937.386719 328.449219 941.695312 328.449219 C 950.320312 328.449219 956.894531 327.976562 961.484375 327.027344 M 988.839844 339.851562 C 988.839844 341.46875 988.472656 342.65625 987.71875 343.386719 C 986.964844 344.121094 985.453125 344.8125 983.167969 345.414062 C 969.4375 348.972656 955.601562 350.761719 941.675781 350.761719 C 925.316406 350.761719 912.984375 346.210938 904.6875 337.136719 C 896.386719 328.0625 892.25 315.28125 892.25 298.855469 L 892.25 283.011719 C 892.25 266.585938 896.410156 253.847656 904.707031 244.75 C 913.007812 235.65625 925.359375 231.128906 941.695312 231.128906 C 947.753906 231.128906 954.351562 231.601562 961.484375 232.550781 L 961.484375 195.90625 C 961.484375 194.765625 961.894531 193.792969 962.691406 192.976562 C 963.488281 192.15625 964.480469 191.769531 965.625 191.769531 L 984.699219 191.769531 C 985.84375 191.769531 986.8125 192.175781 987.632812 192.976562 C 988.449219 193.773438 988.839844 194.765625 988.839844 195.90625 Z M 988.839844 339.851562 " clip-rule="nonzero"/></clipPath><clipPath id="e00c53564e"><path d="M 0.203125 0.726562 L 97 0.726562 L 97 159.769531 L 0.203125 159.769531 Z M 0.203125 0.726562 " clip-rule="nonzero"/></clipPath><clipPath id="3a2d66ee23"><path d="M 69.484375 136.027344 L 69.484375 63.859375 C 62.757812 62.910156 56.164062 62.4375 49.695312 62.4375 C 45.386719 62.4375 41.742188 63.171875 38.746094 64.613281 C 35.75 66.058594 33.464844 68.171875 31.890625 70.929688 C 30.320312 73.691406 29.175781 76.773438 28.507812 80.15625 C 27.839844 83.539062 27.496094 87.507812 27.496094 92.011719 L 27.496094 107.855469 C 27.496094 112.359375 27.839844 116.328125 28.507812 119.710938 C 29.175781 123.09375 30.296875 126.199219 31.890625 128.957031 C 33.488281 131.71875 35.773438 133.828125 38.746094 135.273438 C 41.722656 136.71875 45.386719 137.449219 49.695312 137.449219 C 58.320312 137.449219 64.894531 136.976562 69.484375 136.027344 M 96.839844 148.851562 C 96.839844 150.46875 96.472656 151.65625 95.71875 152.386719 C 94.964844 153.121094 93.453125 153.8125 91.167969 154.414062 C 77.4375 157.972656 63.601562 159.761719 49.675781 159.761719 C 33.316406 159.761719 20.984375 155.210938 12.6875 146.136719 C 4.386719 137.0625 0.25 124.28125 0.25 107.855469 L 0.25 92.011719 C 0.25 75.585938 4.410156 62.847656 12.707031 53.75 C 21.007812 44.65625 33.359375 40.128906 49.695312 40.128906 C 55.753906 40.128906 62.351562 40.601562 69.484375 41.550781 L 69.484375 4.90625 C 69.484375 3.765625 69.894531 2.792969 70.691406 1.976562 C 71.488281 1.15625 72.480469 0.769531 73.625 0.769531 L 92.699219 0.769531 C 93.84375 0.769531 94.8125 1.175781 95.632812 1.976562 C 96.449219 2.773438 96.839844 3.765625 96.839844 4.90625 Z M 96.839844 148.851562 " clip-rule="nonzero"/></clipPath><clipPath id="3da8cc2e3d"><rect x="0" width="97" y="0" height="160"/></clipPath><clipPath id="4915f9c81e"><rect x="0" width="1001" y="0" height="379"/></clipPath></defs><g transform="matrix(1, 0, 0, 1, 12, 85)"><g clip-path="url(#4915f9c81e)"><g clip-path="url(#f3cf0ffe35)"><g clip-path="url(#925aabe056)"><g transform="matrix(1, 0, 0, 1, 11, 11)"><g clip-path="url(#848dbf3d71)"><g clip-path="url(#0626102bd0)"><g clip-path="url(#cbef8301c7)"><rect x="-395.918" width="1770.336" fill="#5894ed" y="-305.664" height="995.328" fill-opacity="1"/></g></g></g></g></g></g><g clip-path="url(#95e542205c)"><g clip-path="url(#d4ea473805)"><g transform="matrix(1, 0, 0, 1, 191, 148)"><g clip-path="url(#dc59951670)"><g clip-path="url(#9c4a8c108f)"><g clip-path="url(#f201b18b91)"><rect x="-575.918" width="1770.336" fill="#7277f3" y="-442.664" height="995.328" fill-opacity="1"/></g></g></g></g></g></g><g clip-path="url(#a8658eaaa4)"><g clip-path="url(#5f2e7827bd)"><g transform="matrix(1, 0, 0, 1, 504, 48)"><g clip-path="url(#5221968bb6)"><g clip-path="url(#002927d822)"><g clip-path="url(#e0f2a037fa)"><rect x="-888.918" width="1770.336" fill="#092c42" y="-342.664" height="995.328" fill-opacity="1"/></g></g></g></g></g></g><g clip-path="url(#631727bf91)"><g clip-path="url(#f6adbb3022)"><g transform="matrix(1, 0, 0, 1, 600, 48)"><g clip-path="url(#b19cbd3f94)"><g clip-path="url(#818b490c57)"><g clip-path="url(#44203a02bb)"><rect x="-984.918" width="1770.336" fill="#092c42" y="-342.664" height="995.328" fill-opacity="1"/></g></g></g></g></g></g><g clip-path="url(#5d59c452d5)"><g clip-path="url(#dc20c1b3f4)"><g transform="matrix(1, 0, 0, 1, 502, 231)"><g clip-path="url(#7832043dd0)"><g clip-path="url(#49932d4440)"><g clip-path="url(#6260451486)"><rect x="-886.918" width="1770.336" fill="#092c42" y="-525.664" height="995.328" fill-opacity="1"/></g></g></g></g></g></g><g clip-path="url(#eb06d39904)"><g clip-path="url(#e05aefabe7)"><g transform="matrix(1, 0, 0, 1, 600, 231)"><g clip-path="url(#016f31ecf4)"><g clip-path="url(#3b946d2c2a)"><g clip-path="url(#c4e7f3a910)"><rect x="-984.918" width="1770.336" fill="#092c42" y="-525.664" height="995.328" fill-opacity="1"/></g></g></g></g></g></g><g clip-path="url(#0a97fe8435)"><g clip-path="url(#86dd5c6a86)"><g transform="matrix(1, 0, 0, 1, 723, 191)"><g clip-path="url(#de0587a918)"><g clip-path="url(#c53aded87c)"><g clip-path="url(#17643bede7)"><path fill="#092c42" d="M 0.0507812 0.769531 L 27.40625 0.769531 L 27.40625 158.160156 L 0.0507812 158.160156 Z M 0.0507812 0.769531 " fill-opacity="1" fill-rule="nonzero"/></g></g></g></g></g></g><g clip-path="url(#881b4a6b7d)"><g clip-path="url(#a28cec96b5)"><g transform="matrix(1, 0, 0, 1, 720, 48)"><g clip-path="url(#0ced74c684)"><g clip-path="url(#a92ec9c778)"><g clip-path="url(#be665af5ff)"><rect x="-1104.918" width="1770.336" fill="#092c42" y="-342.664" height="995.328" fill-opacity="1"/></g></g></g></g></g></g><g clip-path="url(#a1c69ac49d)"><g clip-path="url(#399a1ac51c)"><g transform="matrix(1, 0, 0, 1, 821, 48)"><g clip-path="url(#65fc6212f1)"><g clip-path="url(#1ed329fdfa)"><g clip-path="url(#5ce5c3418b)"><rect x="-1205.918" width="1770.336" fill="#092c42" y="-342.664" height="995.328" fill-opacity="1"/></g></g></g></g></g></g><g clip-path="url(#0525a52dfd)"><g clip-path="url(#495358f9cb)"><g transform="matrix(1, 0, 0, 1, 776, 232)"><g clip-path="url(#5b5842c3b3)"><g clip-path="url(#d8f0998aa6)"><g clip-path="url(#4211d491ef)"><rect x="-1160.918" width="1770.336" fill="#092c42" y="-526.664" height="995.328" fill-opacity="1"/></g></g></g></g></g></g><g clip-path="url(#9100a5f58a)"><g clip-path="url(#f0c7528411)"><g transform="matrix(1, 0, 0, 1, 892, 191)"><g clip-path="url(#3da8cc2e3d)"><g clip-path="url(#e00c53564e)"><g clip-path="url(#3a2d66ee23)"><rect x="-1276.918" width="1770.336" fill="#092c42" y="-485.664" height="995.328" fill-opacity="1"/></g></g></g></g></g></g></g></g></svg>